<svg width="40" height="40" viewBox="0 0 40 40" fill="none" xmlns="http://www.w3.org/2000/svg">
<g clip-path="url(#clip0_4437_15546)">
<path d="M12.3664 0H27.3664C34.0664 0 39.5664 5.5 39.6664 12.2V27.2C39.6664 34 34.1664 39.5 27.3664 39.5H12.3664C5.56641 39.5 0.0664062 34 0.0664062 27.3V12.3C0.0664062 5.5 5.56641 0 12.3664 0Z" fill="#527EC7"/>
<g clip-path="url(#clip1_4437_15546)">
<path d="M27.3664 0.199951H12.3664C5.56641 0.199951 0.0664062 5.69995 0.0664062 12.5V27.5C0.0664062 34.2 5.56641 39.7 12.3664 39.7H27.3664C34.1664 39.7 39.6664 34.2 39.6664 27.4V12.4C39.5664 5.69995 34.0664 0.199951 27.3664 0.199951Z" fill="#274F90"/>
<path d="M27.6664 10.5H23.7664C22.9664 10.5 22.2664 11.2 22.2664 12V16.2H27.6664L26.8664 21.6H22.3664V35.2001H16.7664V21.6H12.0664V16.2H16.5664V12C16.5664 8.10005 19.7664 4.80005 23.7664 4.80005H27.6664V10.5Z" fill="white"/>
</g>
</g>
<defs>
<clipPath id="clip0_4437_15546">
<rect width="39.5" height="39.5" fill="white" transform="translate(0.0664062)"/>
</clipPath>
<clipPath id="clip1_4437_15546">
<rect width="39.6" height="39.7" fill="white" transform="translate(0.0664062)"/>
</clipPath>
</defs>
</svg>
