<svg width="40" height="40" viewBox="0 0 40 40" fill="none" xmlns="http://www.w3.org/2000/svg">
<g clip-path="url(#clip0_4437_15562)">
<path d="M27.3664 0H12.3664C5.56641 0 0.0664062 5.5 0.0664062 12.3V27.3C0.0664062 34 5.56641 39.5 12.3664 39.5H27.3664C34.1664 39.5 39.6664 34 39.6664 27.2V12.2C39.5664 5.5 34.0664 0 27.3664 0Z" fill="url(#paint0_linear_4437_15562)"/>
<path d="M25.9664 12.2999C25.1664 12.2999 24.5664 12.8999 24.5664 13.6999C24.5664 14.4999 25.1664 15.0999 25.9664 15.0999C26.7664 15.0999 27.3664 14.4999 27.3664 13.6999C27.3664 12.8999 26.7664 12.2999 25.9664 12.2999Z" fill="white"/>
<path d="M19.866 14C16.666 14 14.166 16.6 14.166 19.7C14.166 22.9 16.766 25.4 19.866 25.4C22.966 25.4 25.566 22.8 25.566 19.7C25.666 16.6 23.066 14 19.866 14ZM19.866 23.4C17.866 23.4 16.166 21.7 16.166 19.7C16.166 17.7 17.866 16 19.866 16C21.866 16 23.566 17.7 23.566 19.7C23.566 21.8 21.966 23.4 19.866 23.4Z" fill="white"/>
<path d="M24.466 31.4H15.166C11.266 31.4 8.16602 28.3 8.16602 24.4V15.1C8.16602 11.2 11.266 8.09998 15.166 8.09998H24.466C28.366 8.09998 31.466 11.2 31.466 15.1V24.4C31.466 28.3 28.366 31.4 24.466 31.4ZM15.166 10.3C12.466 10.3 10.366 12.5 10.366 15.1V24.4C10.366 27.1 12.566 29.2 15.166 29.2H24.466C27.166 29.2 29.266 27 29.266 24.4V15.1C29.266 12.4 27.066 10.3 24.466 10.3H15.166Z" fill="white"/>
</g>
<defs>
<linearGradient id="paint0_linear_4437_15562" x1="9.53621" y1="9.8875" x2="38.0406" y2="37.2412" gradientUnits="userSpaceOnUse">
<stop stop-color="#90278E"/>
<stop offset="0.3436" stop-color="#ED386F"/>
<stop offset="0.6844" stop-color="#F05A28"/>
<stop offset="1" stop-color="#F9EC31"/>
</linearGradient>
<clipPath id="clip0_4437_15562">
<rect width="39.5" height="39.5" fill="white" transform="translate(0.0664062)"/>
</clipPath>
</defs>
</svg>
