<?xml version="1.0" encoding="utf-8"?>
<!-- Generator: Adobe Illustrator 24.1.3, SVG Export Plug-In . SVG Version: 6.00 Build 0)  -->
<svg version="1.1" id="Layer_6" xmlns="http://www.w3.org/2000/svg" xmlns:xlink="http://www.w3.org/1999/xlink" x="0px" y="0px"
	 viewBox="0 0 45 28" style="enable-background:new 0 0 45 28;" xml:space="preserve">
<g>
	<path style="fill-rule:evenodd;clip-rule:evenodd;fill:#134380;" d="M2.9,0.4h39.3c1.4,0,2.5,1.1,2.5,2.5v22.2
		c0,1.4-1.1,2.5-2.5,2.5H2.9c-1.4,0-2.5-1.1-2.5-2.5V2.9C0.4,1.5,1.5,0.4,2.9,0.4z"/>
	<path style="fill:#134380;" d="M42.1,28H2.9C1.3,28,0,26.7,0,25.1V2.9C0,1.3,1.3,0,2.9,0h39.3C43.7,0,45,1.3,45,2.9v22.2
		C45,26.7,43.7,28,42.1,28z M2.9,0.8c-1.1,0-2,0.9-2,2.1v22.2c0,1.1,0.9,2.1,2,2.1h39.3c1.1,0,2-0.9,2-2.1V2.9c0-1.1-0.9-2.1-2-2.1
		H2.9z"/>
	<g>
		<circle style="fill:#F79F1A;" cx="28.4" cy="14" r="9.4"/>
		<circle style="opacity:0.8;fill:#EA001B;" cx="16.6" cy="14" r="9.4"/>
	</g>
</g>
<g>
	<path style="fill-rule:evenodd;clip-rule:evenodd;fill:#2566AF;" d="M64.2,21.5h38.5c1.3,0,2.4,1.1,2.4,2.4v21.7
		c0,1.3-1.1,2.4-2.4,2.4H64.2c-1.3,0-2.4-1.1-2.4-2.4V23.9C61.8,22.6,62.9,21.5,64.2,21.5z"/>
	<path style="fill:#2566AF;" d="M102.7,48.4H64.2c-1.5,0-2.8-1.3-2.8-2.8V23.9c0-1.5,1.3-2.8,2.8-2.8h38.5c1.5,0,2.8,1.3,2.8,2.8
		v21.7C105.6,47.2,104.3,48.4,102.7,48.4z M64.2,21.9c-1.1,0-2,0.9-2,2v21.7c0,1.1,0.9,2,2,2h38.5c1.1,0,2-0.9,2-2V23.9
		c0-1.1-0.9-2-2-2H64.2z"/>
</g>
<g>
	<path style="fill-rule:evenodd;clip-rule:evenodd;fill:#2566AF;" d="M2.8,32H42c1.4,0,2.5,1.1,2.5,2.5v22.2c0,1.4-1.1,2.5-2.5,2.5
		H2.8c-1.4,0-2.5-1.1-2.5-2.5V34.5C0.3,33.1,1.4,32,2.8,32z"/>
	<path style="fill:#2566AF;" d="M42,59.6H2.8c-1.6,0-2.9-1.3-2.9-2.9V34.5c0-1.6,1.3-2.9,2.9-2.9H42c1.6,0,2.9,1.3,2.9,2.9v22.2
		C44.9,58.3,43.6,59.6,42,59.6z M2.8,32.4c-1.1,0-2,0.9-2,2.1v22.2c0,1.1,0.9,2.1,2,2.1H42c1.1,0,2-0.9,2-2.1V34.5
		c0-1.1-0.9-2.1-2-2.1H2.8z"/>
</g>
<g>
	<g>
		<path style="fill:#FFFFFF;" d="M19.9,51.5h-3.1l1.9-11.8h3.1L19.9,51.5z M14.3,39.7l-2.9,8.1L11,46.1l0,0l-1-5.3
			c0,0-0.1-1.1-1.5-1.1H3.7l-0.1,0.2c0,0,1.5,0.3,3.2,1.3l2.7,10.2h3.2l4.9-11.8H14.3L14.3,39.7z M38.4,51.5h2.8l-2.5-11.8h-2.5
			c-1.1,0-1.4,0.9-1.4,0.9l-4.6,10.9h3.2l0.6-1.7H38L38.4,51.5L38.4,51.5z M35,47.3l1.6-4.4l0.9,4.4H35z M30.5,42.5L31,40
			c0,0-1.3-0.5-2.8-0.5c-1.5,0-5.1,0.7-5.1,3.9c0,3,4.2,3.1,4.2,4.7s-3.8,1.3-5.1,0.3L21.8,51c0,0,1.4,0.7,3.5,0.7
			c2.1,0,5.2-1.1,5.2-4c0-3.1-4.3-3.3-4.3-4.7C26.2,41.7,29.2,41.8,30.5,42.5L30.5,42.5z"/>
	</g>
	<path style="fill:#E6A540;" d="M11,46.1l-1-5.3c0,0-0.1-1.1-1.5-1.1H3.7l-0.1,0.2c0,0,2.3,0.5,4.5,2.3C10.3,43.9,11,46.1,11,46.1z"
		/>
</g>
<path style="fill:#2566AF;" d="M103,66.1H64.5c-1.5,0-2.8,1.3-2.8,2.8v21.7c0,1.5,1.3,2.8,2.8,2.8H103c1.5,0,2.8-1.3,2.8-2.8V68.9
	C105.9,67.4,104.6,66.1,103,66.1z"/>
<polygon style="fill:#999999;" points="12.3,85.8 14,85.8 13.2,83.7 "/>
<path style="fill:#999999;" d="M41.9,66.2H2.7c-1.1,0-2,0.9-2,2.1v22.2c0,1.1,0.9,2.1,2,2.1h39.3c1.1,0,2-0.9,2-2.1V68.2
	C44,67.1,43.1,66.2,41.9,66.2z M15.4,89.4l-0.6-1.5h-3.2L11,89.4H8.1l3.7-8.5h2.8l3.7,8.5H15.4z M25.6,83.1h-2.5v6.3h-2.9v-6.3h-2.5
	v-2.2h7.9V83.1z M33.9,89.4l0-3.9l-1.9,3.1h-1.3l-1.9-3v3.7h-2.6v-8.5h2.4l2.8,4.5l2.7-4.5h2.4l0,8.5H33.9z M42.2,76.6H2.5v-7.3
	h39.7V76.6z"/>
<path style="fill:#999999;" d="M41.9,65.3H2.7c-1.6,0-2.9,1.3-2.9,2.9v22.2c0,1.6,1.3,2.9,2.9,2.9h39.3c1.6,0,2.9-1.3,2.9-2.9V68.2
	C44.8,66.6,43.5,65.3,41.9,65.3z M44.4,90.5c0,1.4-1.1,2.5-2.5,2.5H2.7c-1.4,0-2.5-1.1-2.5-2.5V68.2c0-1.4,1.1-2.5,2.5-2.5h39.3
	c1.4,0,2.5,1.1,2.5,2.5V90.5z"/>
<path style="fill:#999999;" d="M41.9,65.8H2.7c-1.4,0-2.5,1.1-2.5,2.5v22.2c0,1.4,1.1,2.5,2.5,2.5h39.3c1.4,0,2.5-1.1,2.5-2.5V68.2
	C44.4,66.9,43.3,65.8,41.9,65.8z M44,90.5c0,1.1-0.9,2.1-2,2.1H2.7c-1.1,0-2-0.9-2-2.1V68.2c0-1.1,0.9-2.1,2-2.1h39.3
	c1.1,0,2,0.9,2,2.1V90.5z"/>
</svg>
