<?xml version="1.0" encoding="iso-8859-1"?>
<!-- Uploaded to: SVG Repo, www.svgrepo.com, Generator: SVG Repo Mixer Tools -->
<svg fill="#ffffff" height="36px" width="36px" version="1.1" id="Layer_1" xmlns="http://www.w3.org/2000/svg" xmlns:xlink="http://www.w3.org/1999/xlink" 
	 viewBox="0 0 381.67 381.67" xml:space="preserve">
<path id="XMLID_18_" d="M377.276,354.232l-30.938-30.937c7.573-11.538,11.996-25.32,11.996-40.123
	c0-35.297-25.068-64.844-58.334-71.786V171.56c17.927-11.505,29.864-31.555,29.991-54.363c0.002-0.106,0.008-0.212,0.008-0.318
	c0-0.016,0.001-0.031,0.001-0.047c0-0.096-0.013-0.19-0.015-0.285c-0.007-0.387-0.021-0.775-0.059-1.165
	c-0.024-0.247-0.067-0.488-0.103-0.732c-0.036-0.239-0.062-0.478-0.109-0.716c-0.076-0.389-0.176-0.77-0.282-1.146
	c-0.025-0.089-0.039-0.178-0.065-0.266l-0.021-0.07c-0.013-0.043-0.026-0.088-0.039-0.131L299.367,12.52
	C297.464,6.176,291.624,1.831,285,1.831H45c-6.624,0-12.464,4.345-14.367,10.689L0.693,112.319c-0.014,0.043-0.026,0.088-0.04,0.131
	l-0.021,0.07c-0.026,0.088-0.041,0.177-0.066,0.266c-0.105,0.377-0.206,0.758-0.282,1.146c-0.047,0.238-0.074,0.477-0.109,0.716
	c-0.036,0.244-0.079,0.485-0.103,0.732c-0.038,0.39-0.051,0.778-0.059,1.165C0.013,116.642,0,116.735,0,116.831
	c0,0.016,0.001,0.031,0.001,0.047c0,0.106,0.006,0.212,0.008,0.318C0.136,140.005,12.073,160.055,30,171.56v146.244
	c0,8.284,6.716,15,15,15h186.072c13.411,14.561,32.619,23.703,53.928,23.703c14.804,0,28.587-4.424,40.126-11.998l30.938,30.937
	c2.929,2.93,6.768,4.393,10.607,4.393c3.839,0,7.678-1.465,10.607-4.393C383.134,369.587,383.134,360.09,377.276,354.232z
	 M56.161,31.831h217.679l26.1,86.998c-1.04,18.373-16.311,33.002-34.939,33.002c-19.299,0-35-15.701-35-35c0-8.284-6.716-15-15-15
	c-8.284,0-15,6.716-15,15c0,19.299-15.701,35-35,35c-19.299,0-35-15.701-35-35c0-8.284-6.716-15-15-15c-8.284,0-15,6.716-15,15
	c0,19.299-15.701,35-35,35c-18.628,0-33.899-14.629-34.939-33.002L56.161,31.831z M60,302.804V181.62
	c1.652,0.126,3.316,0.211,5,0.211c20.085,0,38.067-9.16,50-23.518c11.933,14.357,29.915,23.518,50,23.518
	c20.085,0,38.067-9.16,50-23.518c11.933,14.357,29.915,23.518,50,23.518c1.684,0,3.348-0.085,5-0.211v29.767
	c-33.266,6.942-58.334,36.489-58.334,71.786c0,6.8,0.95,13.378,2.69,19.631H60z M241.666,283.173
	c0-23.895,19.439-43.334,43.334-43.334c23.895,0,43.334,19.44,43.334,43.334S308.895,326.507,285,326.507
	C261.105,326.507,241.666,307.067,241.666,283.173z"/>
</svg>