<?xml version="1.0" encoding="utf-8"?>
<!-- Generator: Adobe Illustrator 24.1.3, SVG Export Plug-In . SVG Version: 6.00 Build 0)  -->
<svg version="1.1" id="Layer_6" xmlns="http://www.w3.org/2000/svg" xmlns:xlink="http://www.w3.org/1999/xlink" x="0px" y="0px"
	 viewBox="0 0 45 28" style="enable-background:new 0 0 45 28;" xml:space="preserve">
<g>
	<path style="fill-rule:evenodd;clip-rule:evenodd;fill:#134380;" d="M3-31.2h39.3c1.4,0,2.5,1.1,2.5,2.5v22.2
		c0,1.4-1.1,2.5-2.5,2.5H3C1.6-4,0.5-5.1,0.5-6.5v-22.2C0.5-30.1,1.6-31.2,3-31.2z"/>
	<path style="fill:#134380;" d="M42.2-3.6H3c-1.6,0-2.9-1.3-2.9-2.9v-22.2c0-1.6,1.3-2.9,2.9-2.9h39.3c1.6,0,2.9,1.3,2.9,2.9v22.2
		C45.1-4.9,43.8-3.6,42.2-3.6z M3-30.8c-1.1,0-2,0.9-2,2.1v22.2c0,1.1,0.9,2.1,2,2.1h39.3c1.1,0,2-0.9,2-2.1v-22.2
		c0-1.1-0.9-2.1-2-2.1H3z"/>
	<g>
		<circle style="fill:#F79F1A;" cx="28.5" cy="-17.6" r="9.4"/>
		<circle style="opacity:0.8;fill:#EA001B;" cx="16.7" cy="-17.6" r="9.4"/>
	</g>
</g>
<g>
	<path style="fill-rule:evenodd;clip-rule:evenodd;fill:#2566AF;" d="M64.3-10.1h38.5c1.3,0,2.4,1.1,2.4,2.4V14
		c0,1.3-1.1,2.4-2.4,2.4H64.3c-1.3,0-2.4-1.1-2.4-2.4V-7.7C61.9-9,63-10.1,64.3-10.1z"/>
	<path style="fill:#2566AF;" d="M102.8,16.8H64.3c-1.5,0-2.8-1.3-2.8-2.8V-7.7c0-1.5,1.3-2.8,2.8-2.8h38.5c1.5,0,2.8,1.3,2.8,2.8V14
		C105.7,15.6,104.4,16.8,102.8,16.8z M64.3-9.7c-1.1,0-2,0.9-2,2V14c0,1.1,0.9,2,2,2h38.5c1.1,0,2-0.9,2-2V-7.7c0-1.1-0.9-2-2-2
		H64.3z"/>
</g>
<g>
	<path style="fill-rule:evenodd;clip-rule:evenodd;fill:#2566AF;" d="M2.9,0.4h39.3c1.4,0,2.5,1.1,2.5,2.5v22.2
		c0,1.4-1.1,2.5-2.5,2.5H2.9c-1.4,0-2.5-1.1-2.5-2.5V2.9C0.4,1.5,1.5,0.4,2.9,0.4z"/>
	<path style="fill:#2566AF;" d="M42.1,28H2.9C1.3,28,0,26.7,0,25.1V2.9C0,1.3,1.3,0,2.9,0h39.3C43.7,0,45,1.3,45,2.9v22.2
		C45,26.7,43.7,28,42.1,28z M2.9,0.8c-1.1,0-2,0.9-2,2.1v22.2c0,1.1,0.9,2.1,2,2.1h39.3c1.1,0,2-0.9,2-2.1V2.9c0-1.1-0.9-2.1-2-2.1
		H2.9z"/>
</g>
<g>
	<g>
		<path style="fill:#FFFFFF;" d="M20,19.9h-3.1l1.9-11.8h3.1L20,19.9z M14.4,8.1l-2.9,8.1l-0.3-1.7l0,0l-1-5.3c0,0-0.1-1.1-1.5-1.1
			H3.8L3.7,8.3c0,0,1.5,0.3,3.2,1.3l2.7,10.2h3.2l4.9-11.8L14.4,8.1L14.4,8.1z M38.5,19.9h2.8L38.8,8.1h-2.5c-1.1,0-1.4,0.9-1.4,0.9
			l-4.6,10.9h3.2l0.6-1.7h3.9L38.5,19.9L38.5,19.9z M35.1,15.7l1.6-4.4l0.9,4.4H35.1z M30.6,11L31,8.4c0,0-1.3-0.5-2.8-0.5
			c-1.5,0-5.1,0.7-5.1,3.9c0,3,4.2,3.1,4.2,4.7c0,1.6-3.8,1.3-5.1,0.3l-0.5,2.6c0,0,1.4,0.7,3.5,0.7c2.1,0,5.2-1.1,5.2-4
			c0-3.1-4.3-3.3-4.3-4.7C26.3,10.1,29.3,10.2,30.6,11L30.6,11z"/>
	</g>
	<path style="fill:#E6A540;" d="M11.1,14.5l-1-5.3c0,0-0.1-1.1-1.5-1.1H3.8L3.7,8.3c0,0,2.3,0.5,4.5,2.3
		C10.4,12.3,11.1,14.5,11.1,14.5z"/>
</g>
<path style="fill:#2566AF;" d="M103.1,34.5H64.6c-1.5,0-2.8,1.3-2.8,2.8V59c0,1.5,1.3,2.8,2.8,2.8h38.5c1.5,0,2.8-1.3,2.8-2.8V37.3
	C105.9,35.8,104.7,34.5,103.1,34.5z"/>
<polygon style="fill:#999999;" points="12.4,54.2 14.1,54.2 13.3,52.1 "/>
<path style="fill:#999999;" d="M42,34.6H2.8c-1.1,0-2,0.9-2,2.1v22.2c0,1.1,0.9,2.1,2,2.1H42c1.1,0,2-0.9,2-2.1V36.6
	C44.1,35.5,43.2,34.6,42,34.6z M15.5,57.8l-0.6-1.5h-3.2l-0.6,1.5H8.2l3.7-8.5h2.8l3.7,8.5H15.5z M25.7,51.5h-2.5v6.3h-2.9v-6.3
	h-2.5v-2.2h7.9V51.5z M34,57.8l0-3.9L32.2,57h-1.3L29,54v3.7h-2.6v-8.5h2.4l2.8,4.5l2.7-4.5h2.4l0,8.5H34z M42.3,45H2.5v-7.3h39.7
	V45z"/>
<path style="fill:#999999;" d="M42,33.7H2.8c-1.6,0-2.9,1.3-2.9,2.9v22.2c0,1.6,1.3,2.9,2.9,2.9H42c1.6,0,2.9-1.3,2.9-2.9V36.6
	C44.9,35,43.6,33.7,42,33.7z M44.5,58.9c0,1.4-1.1,2.5-2.5,2.5H2.8c-1.4,0-2.5-1.1-2.5-2.5V36.6c0-1.4,1.1-2.5,2.5-2.5H42
	c1.4,0,2.5,1.1,2.5,2.5V58.9z"/>
<path style="fill:#999999;" d="M42,34.2H2.8c-1.4,0-2.5,1.1-2.5,2.5v22.2c0,1.4,1.1,2.5,2.5,2.5H42c1.4,0,2.5-1.1,2.5-2.5V36.6
	C44.5,35.3,43.4,34.2,42,34.2z M44.1,58.9c0,1.1-0.9,2.1-2,2.1H2.8c-1.1,0-2-0.9-2-2.1V36.6c0-1.1,0.9-2.1,2-2.1H42
	c1.1,0,2,0.9,2,2.1V58.9z"/>
</svg>
